<svg xmlns="http://www.w3.org/2000/svg" xmlns:xlink="http://www.w3.org/1999/xlink" viewBox="0 0 339.29 110.47"><defs><style>.cls-1{fill:url(#linear-gradient);}.cls-2{fill:url(#New_Gradient_Swatch_1);}.cls-3{fill:url(#linear-gradient-2);}.cls-4{fill:url(#linear-gradient-3);}.cls-5{fill:url(#linear-gradient-4);}.cls-6{fill:#fff;}</style><linearGradient id="linear-gradient" x1="6.49" y1="111.56" x2="23.86" y2="75.32" gradientUnits="userSpaceOnUse"><stop offset="0" stop-color="#00aeef"/><stop offset="0.29" stop-color="#1088d2"/><stop offset="1" stop-color="#36308d"/></linearGradient><linearGradient id="New_Gradient_Swatch_1" x1="19.21" y1="55.13" x2="77.32" y2="55.13" gradientUnits="userSpaceOnUse"><stop offset="0" stop-color="#00aeef"/><stop offset="0.15" stop-color="#1088d2"/><stop offset="0.51" stop-color="#36308d"/><stop offset="0.7" stop-color="#682969"/><stop offset="1" stop-color="#be1e2d"/></linearGradient><linearGradient id="linear-gradient-2" x1="39.73" y1="35.49" x2="44.22" y2="26.12" gradientUnits="userSpaceOnUse"><stop offset="0" stop-color="#00aeef"/><stop offset="0.15" stop-color="#1088d2"/><stop offset="0.51" stop-color="#36308d"/><stop offset="1" stop-color="#672c72"/></linearGradient><linearGradient id="linear-gradient-3" x1="35.04" y1="45.81" x2="39.53" y2="36.44" xlink:href="#linear-gradient-2"/><linearGradient id="linear-gradient-4" x1="30.3" y1="56.08" x2="34.79" y2="46.71" xlink:href="#linear-gradient-2"/></defs><g id="Layer_2" data-name="Layer 2"><g id="Layer_1-2" data-name="Layer 1"><polygon class="cls-1" points="20.15 66.21 0 110.47 32.23 74.7 20.15 66.21"/><polygon class="cls-2" points="50.35 0 42.87 16.39 58.88 81.82 24.39 56.88 19.21 68.22 77.33 110.25 50.35 0"/><polygon class="cls-3" points="40.13 22.27 44.34 38.23 37.04 29.04 40.13 22.27"/><polygon class="cls-4" points="35.45 32.59 39.66 48.55 32.36 39.36 35.45 32.59"/><polygon class="cls-5" points="30.71 42.86 34.92 58.82 27.62 49.63 30.71 42.86"/><path class="cls-6" d="M123.45,86.13h-5.74l-.93-4.06H111l-1,4.06h-5.63l6.45-24.31H117Zm-7.72-8.43a104.5,104.5,0,0,1-1.86-10.33h-.07q-.66,5.05-1.84,10.33Z"/><path class="cls-6" d="M128.58,61.82h5.57l7,14-.2-2.62V61.82h5.52V86.13h-5.66L134,72.33l.15,3V86.13h-5.52Z"/><path class="cls-6" d="M154.05,61.82h5.16q5.35,0,8.14,3.05t2.78,8.91A16.14,16.14,0,0,1,168.76,81a8.51,8.51,0,0,1-3.84,4,12.22,12.22,0,0,1-5.46,1.22h-5.41ZM159.57,67v14a4.44,4.44,0,0,0,3.55-1.78q1-1.55,1-5.12a15.26,15.26,0,0,0-.36-3.58,5.25,5.25,0,0,0-1.09-2.26,3,3,0,0,0-1.4-1A8.88,8.88,0,0,0,159.57,67Z"/><path class="cls-6" d="M176.2,61.82h6.42a9,9,0,0,1,6.16,2A6.94,6.94,0,0,1,191,69.27a7.34,7.34,0,0,1-.86,3.41,5.66,5.66,0,0,1-2.49,2.49l4.4,11h-5.82L181.8,75.06h-.09V86.13H176.2Zm5.51,4.7v5.77c2.44-.05,3.66-.9,3.66-2.57a3.06,3.06,0,0,0-.84-2.42A4.48,4.48,0,0,0,181.71,66.52Z"/><path class="cls-6" d="M197.56,61.82h11.16V67h-5.65v4.48H208v5h-4.9v4.43h5.68v5.19H197.56Z"/><path class="cls-6" d="M215.45,85.67V80a9.28,9.28,0,0,0,4.41,1.53A2.29,2.29,0,0,0,221.5,81a2,2,0,0,0,.6-1.52,2.22,2.22,0,0,0-.48-1.37A9,9,0,0,0,220,76.53a18.8,18.8,0,0,1-4.14-4.07,7.22,7.22,0,0,1-1.28-4.19,6.79,6.79,0,0,1,7.11-7.12,11.43,11.43,0,0,1,4.63,1v5.44a9,9,0,0,0-4-1.35,2.39,2.39,0,0,0-1.61.51,1.71,1.71,0,0,0-.59,1.37c0,1,.91,2.17,2.75,3.44a16.49,16.49,0,0,1,3.32,3.18,7.25,7.25,0,0,1,1.68,4.74,6.85,6.85,0,0,1-2.2,5.22A7.83,7.83,0,0,1,220,86.76,10.51,10.51,0,0,1,215.45,85.67Z"/><path class="cls-6" d="M262.34,72.51v4.08A11.17,11.17,0,0,1,260.06,84a7.75,7.75,0,0,1-6.26,2.71,8,8,0,0,1-6.86-3.34q-2.43-3.35-2.43-9.53t2.42-9.48a8.24,8.24,0,0,1,7-3.23q5.22,0,7.54,5.55l-5.26,2.17A7.44,7.44,0,0,0,255,67.16a2.19,2.19,0,0,0-1.55-.53,2.42,2.42,0,0,0-2.37,1.75,16.54,16.54,0,0,0-.71,5.69,13.63,13.63,0,0,0,.8,5.39,2.63,2.63,0,0,0,2.52,1.72c1.84,0,2.8-1.32,2.86-4H254V72.51Z"/><path class="cls-6" d="M285.76,86.13H280l-.93-4.06h-5.82l-1,4.06h-5.63l6.45-24.31h6.19ZM278,77.7a104.5,104.5,0,0,1-1.86-10.33h-.07q-.66,5.05-1.84,10.33Z"/><path class="cls-6" d="M290.89,61.82h5.52V80.5h4.37v5.63h-9.89Z"/><path class="cls-6" d="M306.86,61.82h5.52V80.5h4.37v5.63h-9.89Z"/><path class="cls-6" d="M330.42,86.73a7.65,7.65,0,0,1-6.72-3.38q-2.31-3.37-2.31-9.75c0-3.92.78-7,2.32-9.17a7.49,7.49,0,0,1,6.48-3.28A7.79,7.79,0,0,1,337,64.44q2.34,3.3,2.34,9.42c0,4.07-.77,7.24-2.3,9.49A7.5,7.5,0,0,1,330.42,86.73Zm-.2-20.07q-3,0-3,7,0,4.52.75,6a2.38,2.38,0,0,0,2.2,1.51,2.58,2.58,0,0,0,2.37-1.51q.82-1.52.83-5.92C333.39,69,332.33,66.66,330.22,66.66Z"/></g></g></svg>